# AST/ASF file generated using VICON BodyLanguage
# -----------------------------------------------
:version 1.10
:name VICON
:units
  mass 1.0
  length 0.45
  angle deg
:documentation
   .ast/.asf automatically generated from VICON data using
   VICON BodyBuilder and BodyLanguage model FoxedUp or BRILLIANT.MOD
:root
   order TX TY TZ RX RY RZ
   axis XYZ
   position 0 0 0  
   orientation 0 0 0 
:bonedata
  begin
     id 1 
     name lhipjoint
     direction 0.624716 -0.669793 0.401383 
     length 2.38238 
     axis 0 0 0  XYZ
  end
  begin
     id 2 
     name lfemur
     direction 0.34202 -0.939693 0  
     length 6.4574  
     axis 0 0 20  XYZ
    dof rx ry rz
    limits (-160.0 20.0)
           (-70.0 70.0)
           (-60.0 70.0)
  end
  begin
     id 3 
     name ltibia
     direction 0.34202 -0.939693 0   
     length 7.68739   
     axis 0 0 20   XYZ
    dof rx
    limits (-10.0 170.0)
  end
  begin
     id 4 
     name lfoot
     direction 0.0681309 -0.187188 0.979959   
     length 2.46615   
     axis -90 7.62852e-016 20   XYZ
    dof rx rz
    limits (-45.0 90.0)
           (-70.0 20.0)
  end
  begin
     id 5 
     name ltoes
     direction 1.53566e-011 -4.21819e-011 1   
     length 1.2376   
     axis -90 7.62852e-016 20   XYZ
    dof rx
    limits (-90.0 20.0)
  end
  begin
     id 6 
     name rhipjoint
     direction -0.644473 -0.655875 0.393043   
     length 2.43293  
     axis 0 0 0  XYZ 
  end
  begin
     id 7 
     name rfemur
     direction -0.34202 -0.939693 0   
     length 6.7025   
     axis 0 0 -20   XYZ
    dof rx ry rz
    limits (-160.0 20.0)
           (-70.0 70.0)
           (-70.0 60.0)
  end
  begin
     id 8 
     name rtibia
     direction -0.34202 -0.939693 0   
     length 7.80547   
     axis 0 0 -20   XYZ
    dof rx
    limits (-10.0 170.0)
 end
 begin
     id 9 
     name rfoot
     direction -0.0756734 -0.207911 0.975216   
     length 2.40315  
     axis -90 -7.62852e-016 -20   XYZ
    dof rx rz
    limits (-45.0 90.0)
           (-20.0 70.0)
  end
  begin
     id 10 
     name rtoes
     direction -1.5353e-011 -4.21879e-011 1   
     length 1.20477   
     axis -90 -7.62852e-016 -20   XYZ
    dof rx
    limits (-90.0 20.0)
  end
  begin
     id 11 
     name lowerback
     direction 0.0160353 0.987463 -0.157037   
     length 2.18572   
     axis 0 0 0   XYZ
    dof rx ry rz
    limits (-20.0 45.0)
           (-30.0 30.0)
           (-30.0 30.0)
  end
  begin
     id 12 
     name upperback
     direction -0.00499661 0.999756 0.0215076   
     length 2.18016   
     axis 0 0 0   XYZ
    dof rx ry rz
    limits (-20.0 45.0)
           (-30.0 30.0)
           (-30.0 30.0)
  end
  begin
     id 13 
     name thorax
     direction -0.00921346 0.995333 0.0960619   
     length 2.24923   
     axis 0 0 0   XYZ
    dof rx ry rz
    limits (-20.0 45.0)
           (-30.0 30.0)
           (-30.0 30.0)
  end
  begin
     id 14 
     name lowerneck
     direction 0.0274184 0.991181 0.12965   
     length 1.70911   
     axis 0 0 0   XYZ
    dof rx ry rz
    limits (-20.0 45.0)
           (-30.0 30.0)
           (-30.0 30.0)
  end
  begin
     id 15 
     name upperneck
     direction 0.0015627 0.999959 -0.00893559   
     length 1.69312   
     axis 0 0 0   XYZ
    dof rx ry rz
    limits (-20.0 45.0)
           (-30.0 30.0)
           (-30.0 30.0)
  end
  begin
     id 16
     name head
     direction -0.00230242 0.999856 -0.0168327  
     length 1.80241  
     axis 0 0 0   XYZ
    dof rx ry rz
    limits (-20.0 45.0)
           (-30.0 30.0)
           (-30.0 30.0)
  end
  begin
     id 17 
     name lclavicle
     direction 0.955523 0.290741 -0.0494489  
     length 3.84275  
     axis 0 0 0   XYZ
    dof ry rz
    limits (-20.0 10.0)
           (0.0 20.0)
  end
  begin
     id 18 
     name lhumerus
     direction 1 -4.48967e-011 -3.18382e-028   
     length 5.17714   
     axis 180 -30 -90   XYZ
    dof rx ry rz
    limits (-60.0 90.0)
           (-90.0 90.0)
           (-90.0 90.0)
  end
  begin
     id 19
     name lradius
     direction 1 -4.48968e-011 -2.22911e-027   
     length 3.43679   
     axis 180 -30 -90   XYZ
    dof rx
    limits (-10.0 170.0)
  end
  begin
     id 20
     name lwrist
     direction 1 -4.48951e-011 -6.32245e-027   
     length 1.7184   
     axis 3.57107e-015 90 90   XYZ
    dof ry
    limits (-180.0 0.0)
 end
  begin
     id 21 
     name lhand
     direction 1 -4.48924e-011 -1.26431e-026   
     length 0.573117   
     axis 8.06912e-015 90 90   XYZ
    dof rx rz
    limits (-90.0 90.0)
           (-45.0 45.0)
  end
  begin
     id 22 
     name lfingers
     direction 1 -4.49001e-011 -2.52965e-026   
     length 0.462062   
     axis 1.61381e-014 90 90   XYZ
    dof rx
    limits (0.0 90.0)
  end
  begin
     id 23
     name lthumb
     direction 0.707107 -6.35008e-011 0.707107   
     length 0.663431   
     axis -90 45 -1.62303e-014   XYZ
    dof rx rz
    limits (-45.0 45.0)
           (-45.0 45.0)
  end
  begin
     id 24 
     name rclavicle
     direction -0.963917 0.256881 -0.0698287   
     length 3.73057  
     axis 0 0 0   XYZ 
    dof ry rz
    limits (-10.0 20.0)
           (-20.0 0.0)
  end
  begin
     id 25 
     name rhumerus
     direction -1 -4.48962e-011 -2.73982e-027  
     length 5.23908   
     axis 180 30 90   XYZ
    dof rx ry rz
    limits (-90.0 60.0)
           (-90.0 90.0)
           (-90.0 90.0)
  end
  begin
     id 26 
     name rradius
     direction -1 -4.48968e-011 -4.33218e-027   
     length 3.46485   
     axis 180 30 90   XYZ
    dof rx
    limits (-10.0 170.0)
  end
  begin
     id 27 
     name rwrist
     direction -1 -4.48989e-011 -6.32372e-027   
     length 1.73243   
     axis 3.57107e-015 -90 -90   XYZ
    dof ry
    limits (-180.0 0.0)
  end
  begin
     id 28
     name rhand
     direction -1 -4.48948e-011 -1.26448e-026   
     length 0.608752   
     axis 8.06912e-015 -90 -90   XYZ
    dof rx rz
    limits (-90.0 90.0)
           (-45.0 45.0)
  end
  begin
     id 29
     name rfingers
     direction -1 -4.48962e-011 -2.52913e-026   
     length 0.490792   
     axis 1.61381e-014 -90 -90   XYZ
    dof rx
    limits (0.0 90.0)
  end
  begin
     id 30
     name rthumb
     direction -0.707107 -6.34878e-011 0.707107   
     length 0.704682   
     axis -90 -45 1.62303e-014   XYZ
    dof rx rz
    limits (-45.0 45.0)
           (-45.0 45.0)
  end
:hierarchy
  begin
    root lhipjoint rhipjoint lowerback
    lhipjoint lfemur
    lfemur ltibia
    ltibia lfoot
    lfoot ltoes
    rhipjoint rfemur
    rfemur rtibia
    rtibia rfoot
    rfoot rtoes
    lowerback upperback
    upperback thorax
    thorax lowerneck lclavicle rclavicle
    lowerneck upperneck
    upperneck head
    lclavicle lhumerus
    lhumerus lradius
    lradius lwrist
    lwrist lhand lthumb
    lhand lfingers
    rclavicle rhumerus
    rhumerus rradius
    rradius rwrist
    rwrist rhand rthumb
    rhand rfingers
  end

#!OML:ASF G:\JayActor3\Patient Classification 1\Patient 1\Session 6\male.ASF
:FULLY-SPECIFIED
:DEGREES
254
root 44.7652 15.8383 -18.1905 167.294 -75.9701 -165.884
lowerback -2.16744 -0.123474 4.17202
upperback 2.91341 -0.391951 0.479246
thorax 4.2036 -0.0862837 -1.86659
lowerneck -6.27154 7.84815 9.67876
upperneck 11.9299 10.4402 -7.75053
head 5.54298 5.03753 -3.2308
rclavicle 1.46231e-014 -3.67752e-015
rhumerus -32.5649 -12.1321 -82.1367
rradius 28.1175
rwrist 3.66134
rhand -17.0514 -6.68466
rfingers 7.12502
rthumb 9.18574 -36.4646
lclavicle 1.46231e-014 -3.67752e-015
lhumerus -30.2218 9.34869 84.0215
lradius 26.0769
lwrist 16.7438
lhand -16.6718 10.8675
lfingers 7.12502
lthumb 9.55205 40.6309
rfemur -10.2485 -2.51474 23.7418
rtibia 33.8152
rfoot -29.1812 -8.68727
rtoes -0.573222
lfemur -7.63815 8.72285 -17.4073
ltibia 27.6267
lfoot -22.0073 12.5742
ltoes -2.81415
255
root 44.7559 15.8356 -18.1731 167.227 -75.9512 -165.805
lowerback -2.15231 -0.112865 4.1218
upperback 2.93301 -0.375836 0.4798
thorax 4.21649 -0.0794868 -1.83694
lowerneck -6.19044 7.89718 9.73296
upperneck 11.9314 10.5094 -7.7705
head 5.54001 5.07403 -3.24211
rclavicle -3.85145e-015 9.24349e-015
rhumerus -32.4949 -12.1599 -82.0803
rradius 28.0129
rwrist 3.73026
rhand -17.0872 -6.67922
rfingers 7.12502
rthumb 9.15124 -36.4607
lclavicle -3.85145e-015 9.24349e-015
lhumerus -30.2 9.3477 84.0289
lradius 26.0534
lwrist 16.7244
lhand -16.6684 10.8876
lfingers 7.12502
lthumb 9.55532 40.6509
rfemur -10.2617 -2.45726 23.6963
rtibia 33.8679
rfoot -29.2954 -8.67812
rtoes -0.885396
lfemur -7.63279 8.69535 -17.4546
ltibia 27.6497
lfoot -22.0921 12.5477
ltoes -2.78024
256
root 44.7464 15.8332 -18.1552 167.199 -75.9216 -165.761
lowerback -2.13997 -0.0991261 4.06104
upperback 2.95122 -0.354954 0.476468
thorax 4.22977 -0.0705672 -1.80514
lowerneck -6.11069 7.94907 9.78964
upperneck 11.9382 10.5818 -7.78604
head 5.53922 5.11236 -3.25201
rclavicle -2.11209e-016 9.44227e-015
rhumerus -32.4258 -12.1994 -82.0255
rradius 27.9116
rwrist 3.80454
rhand -17.1241 -6.66403
rfingers 7.12502
rthumb 9.11561 -36.447
lclavicle -2.11209e-016 9.44227e-015
lhumerus -30.1713 9.33163 84.0356
lradius 26.013
lwrist 16.711
lhand -16.6662 10.8994
lfingers 7.12502
lthumb 9.55746 40.6626
rfemur -10.2894 -2.36882 23.6466
rtibia 33.9366
rfoot -29.4064 -8.69901
rtoes -1.2079
lfemur -7.62255 8.69467 -17.5069
ltibia 27.6584
lfoot -22.1703 12.4977
ltoes -2.7467
257
root 44.7364 15.8309 -18.1367 167.183 -75.8811 -165.726
lowerback -2.12689 -0.0832024 3.9968
upperback 2.96302 -0.330641 0.472628
thorax 4.23611 -0.0602186 -1.77171
lowerneck -6.02005 8.00168 9.84597
upperneck 11.9482 10.6558 -7.79892
head 5.5376 5.15181 -3.2613
rclavicle -8.97016e-015 -2.08724e-015
rhumerus -32.3697 -12.2319 -81.9745
rradius 27.8226
rwrist 3.86575
rhand -17.1632 -6.64011
rfingers 7.12502
rthumb 9.07789 -36.4248
lclavicle -8.97016e-015 -2.08724e-015
lhumerus -30.1508 9.31519 84.0394
lradius 25.9642
lwrist 16.695
lhand -16.6655 10.9112
lfingers 7.12502
lthumb 9.55808 40.6744
rfemur -10.3294 -2.25298 23.5982
rtibia 34.0184
rfoot -29.5144 -8.74239
rtoes -1.52553
lfemur -7.60912 8.71056 -17.559
ltibia 27.657
lfoot -22.2445 12.4316
ltoes -2.69512
258
root 44.7262 15.8288 -18.1175 167.182 -75.823 -165.699
lowerback -2.11588 -0.0606704 3.93351
upperback 2.97322 -0.297459 0.466387
thorax 4.24242 -0.0453938 -1.74079
lowerneck -5.93816 8.05688 9.90833
upperneck 11.9657 10.7323 -7.81108
head 5.54038 5.19252 -3.27064
rclavicle -1.93691e-014 1.70955e-014
rhumerus -32.3157 -12.2622 -81.9334
rradius 27.7509
rwrist 3.9108
rhand -17.195 -6.6165
rfingers 7.12502
rthumb 9.0472 -36.4025
lclavicle -1.93691e-014 1.70955e-014
lhumerus -30.1308 9.29377 84.0389
lradius 25.9174
lwrist 16.6753
lhand -16.6595 10.9325
lfingers 7.12502
lthumb 9.5639 40.6954
rfemur -10.3873 -2.11656 23.5515
rtibia 34.111
rfoot -29.6044 -8.80849
rtoes -1.8616
lfemur -7.59919 8.7514 -17.61
ltibia 27.6496
lfoot -22.3156 12.3486
ltoes -2.62631
259
root 44.7155 15.8267 -18.0974 167.165 -75.7576 -165.652
lowerback -2.10586 -0.0370084 3.87851
upperback 2.98205 -0.263088 0.459389
thorax 4.24788 -0.029735 -1.71524
lowerneck -5.8568 8.11149 9.96865
upperneck 11.9897 10.8083 -7.82167
head 5.54511 5.23286 -3.27914
rclavicle 9.85227e-015 6.16232e-015
rhumerus -32.2639 -12.2917 -81.8996
rradius 27.689
rwrist 3.94794
rhand -17.2143 -6.59883
rfingers 7.12502
rthumb 9.02859 -36.3856
lclavicle 9.85227e-015 6.16232e-015
lhumerus -30.1072 9.27376 84.0329
lradius 25.855
lwrist 16.6514
lhand -16.6459 10.9571
lfingers 7.12502
lthumb 9.577 40.7194
rfemur -10.4528 -1.97373 23.5092
rtibia 34.2115
rfoot -29.677 -8.89343
rtoes -2.23533
lfemur -7.59042 8.80388 -17.6561
ltibia 27.6423
lfoot -22.3837 12.2571
ltoes -2.54786
260
root 44.7044 15.8246 -18.0763 167.146 -75.6839 -165.601
lowerback -2.09687 -0.0100974 3.83149
upperback 2.9893 -0.224525 0.448596
thorax 4.25247 -0.0116888 -1.69783
lowerneck -5.7733 8.16359 10.0328
upperneck 12.019 10.8811 -7.83435
head 5.55121 5.27167 -3.28924
rclavicle -1.58407e-014 8.15017e-015
rhumerus -32.2144 -12.3207 -81.876
rradius 27.637
rwrist 3.97095
rhand -17.2286 -6.58824
rfingers 7.12502
rthumb 9.01473 -36.3756
lclavicle -1.58407e-014 8.15017e-015
lhumerus -30.0812 9.25773 84.0178
lradius 25.7789
lwrist 16.6204
lhand -16.6291 10.9767
lfingers 7.12502
lthumb 9.59323 40.7383
rfemur -10.5264 -1.83154 23.4653
rtibia 34.3204
rfoot -29.732 -8.98596
rtoes -2.64859
lfemur -7.58438 8.86959 -17.7023
ltibia 27.6376
lfoot -22.4529 12.1589
ltoes -2.45684
